<svg xmlns="http://www.w3.org/2000/svg" width="100%" height="1024" viewBox="0 0 1024 1024" version="1.1"><path d="M 496.500 119.054 C 470.372 121.053, 434.808 127.170, 428.779 130.703 C 416.775 137.737, 416.048 153.842, 427.434 160.514 C 432.897 163.716, 437.743 163.719, 456.208 160.536 C 487.834 155.083, 515.520 153.247, 540.500 154.944 C 609.843 159.657, 668.896 180.248, 726.052 219.644 C 766.522 247.538, 802.437 286.155, 828.688 330 C 864.628 390.028, 882.407 462.568, 878.933 535 C 877.895 556.642, 876.145 570.781, 872.011 590.912 C 851.003 693.225, 791.044 777.189, 701.656 829.470 C 627.750 872.696, 531.368 887.102, 444.044 867.975 C 414.735 861.555, 391.240 853.223, 362.500 839.056 C 326.197 821.160, 299.843 802.598, 271.656 775.068 C 218.289 722.947, 183.316 656.108, 170.553 581.845 C 166.210 556.576, 165.511 547.728, 165.511 518 C 165.511 489.151, 166.176 480.175, 170.105 456 C 177.741 409.004, 196.773 358.363, 221.023 320.514 C 229.119 307.876, 230.536 304.063, 229.559 297.545 C 228.631 291.359, 222.459 284.719, 216.040 283.003 C 205.855 280.279, 199.236 285.666, 186.500 307.050 C 155.186 359.624, 138.875 407.976, 130.350 473.500 C 127.777 493.276, 127.759 543.480, 130.318 563.500 C 143.139 663.816, 187.117 749.127, 259.212 813.533 C 299.798 849.791, 345.650 875.948, 400 893.851 C 437.612 906.240, 471.139 911.729, 515 912.678 C 543.940 913.304, 558.562 912.504, 582.500 908.985 C 679.504 894.725, 767.972 844.088, 829.265 767.743 C 839.211 755.355, 855.460 731.782, 862.451 719.600 C 900.551 653.209, 920.479 570.370, 916.001 497 C 912.300 436.383, 896.882 380.497, 869.436 328.220 C 862.199 314.436, 861.372 313.071, 848.400 293.500 C 834.231 272.124, 819.489 254.257, 800.112 234.977 C 774.752 209.745, 753.785 193.260, 725 175.922 C 709.909 166.833, 680.463 152.138, 666 146.477 C 632.149 133.230, 592.512 123.571, 557.500 120.037 C 542.004 118.473, 510.695 117.968, 496.500 119.054 " stroke="none" fill="white" fill-rule="evenodd"/><path d="M 359.050 138.750 C 355.925 149.261, 355.014 157.238, 355.026 174 C 355.060 223.623, 374.936 282.789, 407.376 329.832 C 411.294 335.514, 415.175 341.139, 416 342.332 C 418.990 346.654, 406.173 335.282, 392 321.038 C 353.685 282.529, 329.520 239.680, 321.337 195.736 C 319.306 184.828, 318.918 156.663, 320.718 150.704 C 321.809 147.092, 321.764 146.940, 319.798 147.564 C 311.140 150.312, 295.808 163.118, 287.079 174.893 C 279.924 184.545, 272.401 200.708, 269.807 212 C 266.976 224.330, 266.733 249.412, 269.333 261 C 280.679 311.571, 318.369 363.030, 370.297 398.852 C 393.082 414.570, 417.435 427.492, 441.500 436.632 C 449.200 439.557, 454.541 441.961, 453.369 441.975 C 448.446 442.033, 423.863 437.770, 410.695 434.576 C 345.148 418.675, 298.112 386.817, 272.539 341 C 269.622 335.775, 266.928 330.488, 266.551 329.250 C 263.313 318.625, 261.088 348.384, 263.834 365.577 C 275.162 436.494, 339.353 478.994, 435.144 478.999 C 458.092 479, 486.247 475.647, 497.949 471.518 C 500.349 470.671, 502.492 470.158, 502.711 470.378 C 503.398 471.065, 491.936 477.849, 481.500 482.933 C 469.222 488.915, 450.977 495.158, 437 498.162 C 427.786 500.142, 423.621 500.419, 403 500.419 C 382.416 500.419, 378.225 500.141, 369.227 498.186 C 355.076 495.110, 344.175 491.549, 333.124 486.393 L 323.747 482.018 324.399 486.092 C 325.697 494.210, 332.534 505.349, 342.307 515.267 C 366.791 540.115, 401.853 548.182, 444.876 538.867 C 466.132 534.264, 492.643 522.945, 511.520 510.411 C 516.883 506.850, 521.495 504.162, 521.770 504.437 C 522.821 505.488, 507.311 522.419, 498.609 529.721 C 472.186 551.892, 449.810 561.748, 419.500 564.565 L 412.500 565.215 415.875 568.035 C 429.795 579.664, 453.325 584.522, 474.483 580.134 C 492.988 576.297, 510.248 566.062, 530.250 547.065 C 535.612 541.972, 540 538.454, 540 539.248 C 540 542.065, 528.410 563.729, 522.500 571.960 C 498.574 605.280, 458.525 629.695, 407.500 642.068 C 369.317 651.327, 331.173 649.365, 297.646 636.417 C 277.963 628.815, 262.782 618.937, 247.941 604.075 C 233.531 589.645, 225.966 577.805, 221.057 562 L 219.348 556.500 217.796 559.500 C 213.222 568.341, 211.646 589.356, 214.521 603.185 C 219.101 625.216, 227.565 640.587, 243.588 655.969 C 251.588 663.650, 263.597 672.274, 272.662 676.850 C 319.835 700.661, 381.966 695.938, 436.665 664.383 C 448.012 657.838, 449.287 656.933, 465.814 643.693 C 477.415 634.400, 478.015 634.051, 476.170 637.664 C 470.099 649.556, 453.958 668.651, 440.500 679.864 C 411.347 704.153, 382.150 715.286, 344 716.660 C 312.737 717.786, 286.140 711.418, 259.636 696.460 C 254.211 693.399, 249.557 691.109, 249.294 691.373 C 248.320 692.347, 252.272 703.722, 256.008 710.700 C 261.453 720.869, 267.086 728.270, 276.414 737.511 C 299.174 760.058, 327.757 771.992, 359 771.992 C 383.925 771.992, 406.728 764.490, 430 748.635 C 439.652 742.059, 460.387 721.319, 470.126 708.500 C 476.201 700.505, 494.644 673.630, 499.500 665.698 C 500.414 664.205, 501.360 664.189, 510.500 665.513 C 516 666.309, 527.771 666.970, 536.658 666.981 C 588.691 667.043, 636.377 649.880, 672.701 618.017 C 681.725 610.101, 693.754 596.142, 701.944 584.083 C 705.973 578.149, 707.338 576.717, 706.547 579.250 C 698.605 604.704, 692.767 615.875, 678.584 632.761 C 653.052 663.159, 614.980 681.507, 568 686.053 C 556.296 687.185, 536.025 686.896, 525 685.439 L 520.500 684.845 523 686.907 C 524.375 688.042, 529.100 690.768, 533.500 692.965 C 566.025 709.208, 608.467 711.979, 643.024 700.116 C 686.899 685.055, 721.196 650.606, 737.698 605.023 C 742.791 590.957, 745.532 579.081, 749.477 554 C 753.468 528.629, 754.751 523.440, 759.496 513.497 C 763.738 504.607, 770.625 497.552, 778.810 493.714 C 784.618 490.991, 785.796 490.791, 793.622 491.202 C 801.527 491.617, 802.847 492.021, 812.431 496.964 C 818.559 500.125, 823.241 501.969, 823.980 501.512 C 825.654 500.478, 824.502 491.940, 821.887 486 C 820.798 483.525, 817.604 477.988, 814.791 473.695 C 809.694 465.918, 809.673 465.854, 808.862 455.195 C 807.849 441.882, 805.701 432.803, 802.049 426.409 C 785.864 398.071, 746.956 388.956, 715.176 406.056 C 700.730 413.829, 690.213 423.708, 679.086 439.954 C 669.187 454.409, 630.469 520.143, 628.405 526 C 627.767 527.808, 627.351 525.042, 626.899 516 C 626.149 500.981, 622.734 489.263, 615.268 476.083 C 603.311 454.976, 587.014 441.129, 547.483 418.486 C 502.141 392.516, 485.137 380.210, 460.488 355.530 C 432.787 327.792, 412.071 298.497, 393.996 261.500 C 380.847 234.587, 370.287 202.721, 365.993 177 C 363.848 164.155, 361.897 139.761, 362.638 135.061 C 363.531 129.392, 361.085 131.908, 359.050 138.750 " stroke="none" fill="white" fill-rule="evenodd"/><path d="M 579.711 203.586 C 558.651 214.546, 549.149 245.480, 557.137 277.071 C 562.096 296.680, 575.140 319.291, 591.853 337.250 C 594.284 339.863, 595.965 342, 595.587 342 C 592.315 342, 575.179 330.114, 566.325 321.704 C 547.337 303.668, 535.447 281.242, 534.271 261.250 C 533.972 256.163, 533.409 252, 533.019 252 C 530.113 252, 523.545 265.841, 521.943 275.341 C 518.671 294.735, 524.562 315.146, 538.526 332.806 C 549.118 346.201, 559.508 353.928, 588.500 369.969 C 608.051 380.787, 614.113 384.942, 622.050 392.961 C 630.042 401.037, 634.979 408.963, 638.585 419.510 C 640.888 426.245, 641.331 429.266, 641.408 438.744 C 641.459 444.928, 641.857 449.990, 642.293 449.994 C 644.385 450.010, 653.542 439.868, 656.214 434.576 C 660.879 425.334, 662.266 419.477, 662.271 409 C 662.280 386.921, 655.833 374.230, 624.166 334 C 600.972 304.534, 588.086 278.635, 583.481 252.229 C 580.860 237.198, 581.899 212.228, 585.542 202.750 C 586.424 200.454, 585.465 200.591, 579.711 203.586 " stroke="none" fill="white" fill-rule="evenodd"/><path d="M 660.416 274.794 C 663.081 300.945, 672.899 323.502, 687.284 336.518 C 695.444 343.903, 704.123 347.994, 723.326 353.506 C 732.030 356.005, 742.105 359.388, 745.714 361.024 C 749.324 362.661, 752.508 364, 752.791 364 C 753.074 364, 753.017 359.163, 752.665 353.250 C 750.790 321.773, 737.493 298.804, 714.434 287.208 C 708.197 284.071, 701.220 281.906, 683.046 277.469 C 677.296 276.066, 669.699 273.381, 666.162 271.503 L 659.733 268.089 660.416 274.794 " stroke="none" fill="white" fill-rule="evenodd"/><path d="M 509.024 334.750 C 509.055 345.550, 510.150 350.495, 514.533 359.624 C 518.755 368.416, 529.048 379.718, 539.200 386.706 C 543.215 389.471, 554.600 396.103, 564.500 401.445 C 574.400 406.787, 586.190 413.637, 590.700 416.667 C 601.718 424.069, 614.667 437.202, 621.636 448.041 C 624.772 452.918, 627.768 456.644, 628.294 456.318 C 628.854 455.972, 629.045 451.542, 628.755 445.614 C 628.192 434.089, 626.128 427.574, 620.119 418.354 C 611.616 405.308, 600.828 397.067, 575.110 383.976 C 566.096 379.387, 554.861 373.210, 550.143 370.248 C 534.044 360.141, 521.275 347, 514.245 333.303 C 512.185 329.291, 510.163 326.007, 509.750 326.004 C 509.337 326.002, 509.011 329.938, 509.024 334.750 " stroke="none" fill="white" fill-rule="evenodd"/><path d="M 757 433.793 C 751.997 436.524, 749 441.357, 749 446.698 C 749 454.241, 752.477 458.909, 759.683 461.040 C 763.488 462.165, 764.298 462.060, 768.631 459.888 C 775.050 456.671, 777.500 453.111, 777.500 447 C 777.500 436.316, 765.978 428.893, 757 433.793 " stroke="none" fill="white" fill-rule="evenodd"/><path d="M 256.577 489.939 C 244.744 499.343, 238.250 515.753, 239.339 533.500 C 240.440 551.434, 248.500 568.931, 262.832 584.500 C 286.433 610.139, 320.643 625.710, 360.508 628.959 C 373.191 629.993, 390.391 628.951, 398 626.689 L 402.500 625.351 396.500 624.608 C 359.143 619.988, 317.478 597.844, 292.229 569.191 C 278.834 553.990, 269.276 537.573, 264.377 521.353 C 262.122 513.885, 261.688 510.506, 261.602 499.753 C 261.546 492.742, 261.224 487.005, 260.888 487.003 C 260.551 487.001, 258.611 488.323, 256.577 489.939 " stroke="none" fill="white" fill-rule="evenodd"/><path d="M 493.631 702.250 C 483.924 722.883, 472.129 739.911, 457.040 755.079 C 431.342 780.910, 393.329 796.407, 360 794.640 L 349.500 794.083 355.500 799.624 C 362.301 805.905, 377.581 813.955, 388 816.745 C 398.264 819.495, 422.838 819.175, 433.974 816.147 C 456.196 810.105, 476.769 795.309, 490.142 775.751 C 509.347 747.665, 515.988 708.306, 503.853 694.486 C 502.170 692.569, 500.372 691, 499.859 691 C 499.345 691, 496.543 696.063, 493.631 702.250 " stroke="none" fill="white" fill-rule="evenodd"/><path d="M 528.740 724.250 C 528.002 745.558, 525.098 757.660, 516.562 775 C 507.032 794.360, 493.944 809.668, 477.763 820.382 C 468.707 826.378, 453.907 833.506, 448.250 834.596 C 443.805 835.453, 444.172 836.746, 449.530 839.116 C 457.517 842.649, 467.591 844.255, 478.022 843.657 C 530.013 840.678, 559.163 787.188, 539.688 730.500 C 537.461 724.018, 530.429 709, 529.621 709 C 529.427 709, 529.030 715.862, 528.740 724.250" stroke="none" fill="white" fill-rule="evenodd"/></svg>